<svg width="230" height="58" viewBox="0 0 230 58" fill="none" xmlns="http://www.w3.org/2000/svg">
<path d="M41.3042 30.192C39.4338 28.8468 37.5868 27.4734 35.9149 26.1588C34.145 24.7689 32.4101 23.3343 30.7055 21.8574C29.6827 22.5347 28.6577 23.2144 27.6349 23.8917C33.7784 28.3859 39.9219 32.8801 46.0653 37.3743C40.0923 42.1225 34.1193 46.873 28.1486 51.6212C21.4191 48.5734 14.6895 45.5278 7.95996 42.48C14.6031 47.2235 21.2486 51.9646 27.8918 56.7081C35.9967 50.3489 44.1016 43.9874 52.2088 37.6283C48.6362 35.2413 44.5989 32.5579 41.3065 30.1897L41.3042 30.192Z" fill="#0234B8"/>
<path d="M41.3042 30.192C39.4338 28.8468 37.5868 27.4734 35.9149 26.1588C34.145 24.7689 32.4101 23.3343 30.7055 21.8574C29.6827 22.5347 28.6577 23.2144 27.6349 23.8917C33.7784 28.3859 39.9219 32.8801 46.0653 37.3743C40.0923 42.1225 34.1193 46.873 28.1486 51.6212C21.4191 48.5734 14.6895 45.5278 7.95996 42.48C14.6031 47.2235 21.2486 51.9646 27.8918 56.7081C35.9967 50.3489 44.1016 43.9874 52.2088 37.6283C48.6362 35.2413 44.5989 32.5579 41.3065 30.1897L41.3042 30.192Z" stroke="#001D69" stroke-miterlimit="100"/>
<path d="M30.1455 20.9727C28.7048 21.6453 27.2665 22.3202 25.8257 22.9928L45.0407 36.8658C39.4086 41.106 33.7789 45.3463 28.1468 49.5865C20.5532 46.7032 12.9597 43.82 5.36621 40.9367C12.7029 45.5156 20.5532 50.0944 27.8899 54.6757C35.7403 48.7398 43.5883 42.804 51.4387 36.8682C44.3402 31.5697 37.2417 26.2712 30.1432 20.9727H30.1455Z" fill="#001D69"/>
<path d="M30.1455 20.9727C28.7048 21.6453 27.2665 22.3202 25.8257 22.9928L45.0407 36.8658C39.4086 41.106 33.7789 45.3463 28.1468 49.5865C20.5532 46.7032 12.9597 43.82 5.36621 40.9367C12.7029 45.5156 20.5532 50.0944 27.8899 54.6757C35.7403 48.7398 43.5883 42.804 51.4387 36.8682C44.3402 31.5697 37.2417 26.2712 30.1432 20.9727H30.1455Z" stroke="#5483FF" stroke-miterlimit="100"/>
<path d="M29.3631 5.91047C36.2024 9.03125 43.0417 12.1497 49.881 15.2705L29.5172 1C21.1905 6.88644 12.6863 12.8999 4 19.0427C7.9462 21.4932 12.3687 24.2236 15.9554 26.6153C17.9822 27.9652 19.9763 29.3387 21.7743 30.6486C23.6726 32.0291 25.529 33.4472 27.3503 34.9029C28.4057 34.2374 29.4588 33.5742 30.5096 32.9133C23.9855 28.4685 17.3797 23.9696 10.6945 19.4142C17.0155 14.8424 23.236 10.3435 29.3631 5.91282V5.91047Z" fill="#0234B8"/>
<path d="M29.3631 5.91047C36.2024 9.03124 43.0417 12.1497 49.881 15.2705L29.5172 1C21.1905 6.88644 12.6863 12.8999 4 19.0427C7.9462 21.4932 12.3687 24.2236 15.9554 26.6153C17.9822 27.9652 19.9763 29.3387 21.7742 30.6486C23.6726 32.0291 25.529 33.4472 27.3503 34.9029C28.4057 34.2374 29.4588 33.5742 30.5096 32.9133C23.9855 28.4685 17.3797 23.9696 10.6945 19.4142C17.0155 14.8424 23.236 10.3435 29.3631 5.91282V5.91047Z" stroke="#001D69" stroke-miterlimit="100"/>
<path d="M29.4073 7.88392C37.1503 10.8448 44.8933 13.808 52.6339 16.7689C45.2272 12.2417 37.1923 7.63228 29.5591 2.96875C21.4916 8.47186 13.2583 14.0879 4.85449 19.8214C12.6652 25.214 20.3661 30.529 27.9573 35.771C29.4447 35.1102 30.9298 34.4517 32.4055 33.7956C25.6269 29.2355 18.7619 24.6167 11.8082 19.939C17.7602 15.8611 23.6258 11.8443 29.405 7.88392H29.4073Z" fill="#001D69"/>
<path d="M29.4073 7.88392C37.1503 10.8448 44.8933 13.808 52.6339 16.7689C45.2272 12.2417 37.1923 7.63228 29.5591 2.96875C21.4916 8.47186 13.2583 14.0879 4.85449 19.8214C12.6652 25.214 20.3661 30.529 27.9573 35.771C29.4447 35.1102 30.9298 34.4517 32.4055 33.7956C25.6269 29.2355 18.7619 24.6167 11.8082 19.939C17.7602 15.8611 23.6258 11.8443 29.405 7.88392H29.4073Z" stroke="#5483FF" stroke-miterlimit="100"/>
<path d="M72.9138 33.3335C73.1538 34.4535 73.5671 35.4402 74.1538 36.2935C74.7405 37.1202 75.5138 37.7602 76.4738 38.2135C77.4338 38.6668 78.5538 38.8935 79.8338 38.8935C80.9005 38.8935 81.8071 38.7602 82.5538 38.4935C83.3271 38.2268 83.9271 37.8268 84.3538 37.2935C84.7805 36.7602 84.9805 36.1068 84.9538 35.3335C84.9538 34.1602 84.4071 33.1868 83.3138 32.4135C82.2471 31.6135 80.4605 30.9068 77.9538 30.2935C74.9405 29.5735 72.5938 28.5468 70.9138 27.2135C69.2338 25.8802 68.3938 24.1335 68.3938 21.9735C68.3938 20.3202 68.8071 18.8802 69.6338 17.6535C70.4871 16.4268 71.6738 15.4802 73.1938 14.8135C74.7405 14.1468 76.5138 13.8135 78.5138 13.8135C80.5671 13.8135 82.3938 14.2135 83.9938 15.0135C85.6205 15.7868 86.9005 16.8802 87.8338 18.2935C88.7938 19.7068 89.3938 21.3335 89.6338 23.1735L84.5138 23.4535C84.4071 22.3868 84.0738 21.4668 83.5138 20.6935C82.9805 19.8935 82.2738 19.2802 81.3938 18.8535C80.5138 18.4268 79.5271 18.2135 78.4338 18.2135C76.9671 18.2135 75.7805 18.5602 74.8738 19.2535C73.9671 19.9468 73.5271 20.8668 73.5538 22.0135C73.5538 22.8402 73.8338 23.5335 74.3938 24.0935C74.9805 24.6535 75.6738 25.0935 76.4738 25.4135C77.2738 25.7068 78.3271 26.0268 79.6338 26.3735L80.2338 26.5335C83.3271 27.3068 85.7405 28.3868 87.4738 29.7735C89.2338 31.1602 90.1138 32.9202 90.1138 35.0535C90.1138 36.7868 89.6471 38.2802 88.7138 39.5335C87.7805 40.7868 86.5138 41.7335 84.9138 42.3735C83.3138 43.0135 81.5538 43.3335 79.6338 43.3335C77.4471 43.3335 75.4738 42.9335 73.7138 42.1335C71.9805 41.3335 70.5938 40.2002 69.5538 38.7335C68.5405 37.2668 67.9538 35.5602 67.7938 33.6135L72.9138 33.3335ZM105.433 43.4935C102.74 43.4935 100.38 42.8535 98.3535 41.5735C96.3535 40.2668 94.8068 38.4935 93.7135 36.2535C92.6201 34.0135 92.0735 31.4935 92.0735 28.6935C92.0735 25.8935 92.6068 23.3602 93.6735 21.0935C94.7668 18.8268 96.3268 17.0535 98.3535 15.7735C100.38 14.4668 102.74 13.8135 105.433 13.8135C108.153 13.8135 110.527 14.4668 112.553 15.7735C114.58 17.0535 116.127 18.8268 117.193 21.0935C118.26 23.3602 118.793 25.8935 118.793 28.6935C118.793 31.2535 118.327 33.6002 117.393 35.7335C116.487 37.8402 115.193 39.5468 113.513 40.8535L117.153 45.4535H112.833L110.593 42.5735C108.993 43.1868 107.273 43.4935 105.433 43.4935ZM97.2735 28.6935C97.2735 30.6135 97.5801 32.3602 98.1935 33.9335C98.8068 35.4802 99.7268 36.7202 100.953 37.6535C102.18 38.5868 103.673 39.0535 105.433 39.0535C106.233 39.0535 106.94 38.9602 107.553 38.7735L103.633 33.7735H107.953L110.473 37.0535C111.513 36.1202 112.287 34.9335 112.793 33.4935C113.327 32.0268 113.593 30.4268 113.593 28.6935C113.593 26.7468 113.287 25.0002 112.673 23.4535C112.087 21.8802 111.18 20.6268 109.953 19.6935C108.753 18.7335 107.247 18.2535 105.433 18.2535C103.647 18.2535 102.14 18.7335 100.913 19.6935C99.7135 20.6268 98.8068 21.8802 98.1935 23.4535C97.5801 25.0002 97.2735 26.7468 97.2735 28.6935ZM123.46 14.4535L128.7 35.8935L133.98 14.4535H138.74L144.06 35.8935L149.26 14.4535H154.62L147.06 42.8535H141.42L136.38 23.6535L131.38 42.8535H125.74L118.14 14.4535H123.46ZM161.223 14.4535H167.223L177.463 42.8535H172.263L169.903 35.9735H158.543L156.183 42.8535H150.983L161.223 14.4535ZM168.383 31.6135L164.223 19.4535L160.063 31.6135H168.383ZM188.36 14.4535C192.866 14.4535 196.333 15.6935 198.76 18.1735C201.213 20.6268 202.44 24.1335 202.44 28.6935C202.44 33.2268 201.24 36.7202 198.84 39.1735C196.466 41.6268 193.053 42.8535 188.6 42.8535H179V14.4535H188.36ZM188.36 38.4135C191.346 38.4135 193.573 37.6135 195.04 36.0135C196.533 34.3868 197.28 31.9468 197.28 28.6935C197.28 25.3868 196.533 22.9335 195.04 21.3335C193.573 19.7068 191.346 18.8935 188.36 18.8935H184.04V38.4135H188.36ZM209.476 33.3335C209.716 34.4535 210.13 35.4402 210.716 36.2935C211.303 37.1202 212.076 37.7602 213.036 38.2135C213.996 38.6668 215.116 38.8935 216.396 38.8935C217.463 38.8935 218.37 38.7602 219.116 38.4935C219.89 38.2268 220.49 37.8268 220.916 37.2935C221.343 36.7602 221.543 36.1068 221.516 35.3335C221.516 34.1602 220.97 33.1868 219.876 32.4135C218.81 31.6135 217.023 30.9068 214.516 30.2935C211.503 29.5735 209.156 28.5468 207.476 27.2135C205.796 25.8802 204.956 24.1335 204.956 21.9735C204.956 20.3202 205.37 18.8802 206.196 17.6535C207.05 16.4268 208.236 15.4802 209.756 14.8135C211.303 14.1468 213.076 13.8135 215.076 13.8135C217.13 13.8135 218.956 14.2135 220.556 15.0135C222.183 15.7868 223.463 16.8802 224.396 18.2935C225.356 19.7068 225.956 21.3335 226.196 23.1735L221.076 23.4535C220.97 22.3868 220.636 21.4668 220.076 20.6935C219.543 19.8935 218.836 19.2802 217.956 18.8535C217.076 18.4268 216.09 18.2135 214.996 18.2135C213.53 18.2135 212.343 18.5602 211.436 19.2535C210.53 19.9468 210.09 20.8668 210.116 22.0135C210.116 22.8402 210.396 23.5335 210.956 24.0935C211.543 24.6535 212.236 25.0935 213.036 25.4135C213.836 25.7068 214.89 26.0268 216.196 26.3735L216.796 26.5335C219.89 27.3068 222.303 28.3868 224.036 29.7735C225.796 31.1602 226.676 32.9202 226.676 35.0535C226.676 36.7868 226.21 38.2802 225.276 39.5335C224.343 40.7868 223.076 41.7335 221.476 42.3735C219.876 43.0135 218.116 43.3335 216.196 43.3335C214.01 43.3335 212.036 42.9335 210.276 42.1335C208.543 41.3335 207.156 40.2002 206.116 38.7335C205.103 37.2668 204.516 35.5602 204.356 33.6135L209.476 33.3335Z" fill="#001D69"/>
</svg>
