<svg width="24" height="20" viewBox="0 0 24 20" fill="none" xmlns="http://www.w3.org/2000/svg">
<path d="M22 2H14L12 0H6C5.46957 0 4.96086 0.210714 4.58579 0.585786C4.21071 0.960859 4 1.46957 4 2V14C4 14.5304 4.21071 15.0391 4.58579 15.4142C4.96086 15.7893 5.46957 16 6 16H22C22.5304 16 23.0391 15.7893 23.4142 15.4142C23.7893 15.0391 24 14.5304 24 14V4C24 3.46957 23.7893 2.96086 23.4142 2.58579C23.0391 2.21071 22.5304 2 22 2ZM2 4H0V18C0 18.5304 0.210714 19.0391 0.585786 19.4142C0.960859 19.7893 1.46957 20 2 20H20V18H2V4Z" fill="url(#paint0_linear_2648_1010)"/>
<defs>
<linearGradient id="paint0_linear_2648_1010" x1="12" y1="0" x2="12" y2="20" gradientUnits="userSpaceOnUse">
<stop stop-color="#6172F3"/>
<stop offset="1" stop-color="#38428D"/>
</linearGradient>
</defs>
</svg>
