<svg width="20" height="20" viewBox="0 0 20 20" fill="none" xmlns="http://www.w3.org/2000/svg">
<path d="M0 10C0 15.523 4.477 20 10 20C15.523 20 20 15.523 20 10C20 4.477 15.523 0 10 0C4.477 0 0 4.477 0 10ZM18 10C18 12.1217 17.1571 14.1566 15.6569 15.6569C14.1566 17.1571 12.1217 18 10 18C7.87827 18 5.84344 17.1571 4.34315 15.6569C2.84285 14.1566 2 12.1217 2 10C2 7.87827 2.84285 5.84344 4.34315 4.34315C5.84344 2.84285 7.87827 2 10 2C12.1217 2 14.1566 2.84285 15.6569 4.34315C17.1571 5.84344 18 7.87827 18 10ZM16 10C15.9999 10.9867 15.7564 11.9581 15.2913 12.8282C14.8261 13.6983 14.1535 14.4402 13.3331 14.9883C12.5127 15.5364 11.5698 15.8737 10.5878 15.9704C9.60594 16.0671 8.61535 15.9201 7.7038 15.5425C6.79226 15.1649 5.9879 14.5684 5.36197 13.8057C4.73604 13.043 4.30785 12.1377 4.11533 11.17C3.92281 10.2023 3.9719 9.2021 4.25826 8.25791C4.54461 7.31373 5.05939 6.45473 5.757 5.757L10 10V4C11.5913 4 13.1174 4.63214 14.2426 5.75736C15.3679 6.88258 16 8.4087 16 10Z" fill="url(#paint0_linear_2648_1024)"/>
<defs>
<linearGradient id="paint0_linear_2648_1024" x1="10" y1="0" x2="10" y2="20" gradientUnits="userSpaceOnUse">
<stop stop-color="#36BFFA"/>
<stop offset="1" stop-color="#207194"/>
</linearGradient>
</defs>
</svg>
